<svg width="519" height="646" className="big-log" viewBox="0 0 519 646" fill="none" xmlns="http://www.w3.org/2000/svg">
<g filter="url(#filter0_f_473_9908)">
<path d="M440.176 44H435.461L434.979 44.0432L434.396 44.1037C428.835 44.5927 423.478 46.4413 418.789 49.4889C415.482 47.7564 411.912 46.588 408.225 46.0313L407.314 45.893L406.55 45.7806H405.786H401.835L391.657 45.7288L379.203 45.6769H378.765H373.199L362.257 45.6251H353.161L339.668 45.5732H328.579H318.101H300.244H289.576H270.681H261.044L260.958 46.3857C258.566 45.8535 256.124 45.5868 253.675 45.5905H239.795H229.359H211.15H204.709H192.109H190.76H181.673H171.057H164.624L130.122 45.7288C127.491 44.8968 124.778 44.3577 122.031 44.121H121.49L121.035 44.0778H117.135L116.62 44.1297L115.984 44.1902C113.267 44.4682 110.588 45.048 107.997 45.919L95.6971 45.9881L67.4651 46.1523L54.5816 46.2301L44 46.2993V272.9L47.1178 276.038L105.085 334.375C103.245 342.301 102.683 350.473 103.419 358.578L109.628 425.724L110.359 422.457C114.498 444.145 123.062 462.427 130.354 475.029L133.618 480.657L139.784 480.345C145.327 491.147 151.576 501.566 158.491 511.533C176.356 537.266 197.451 558.21 221.191 573.907L248.968 596.26L249.414 596.623L256.097 602L262.753 596.589L263.2 596.226L290.856 573.752C314.528 557.976 335.519 536.885 353.247 511.066C360.088 501.091 366.268 490.672 371.747 479.879H371.842C373.696 479.876 375.518 479.394 377.134 478.478C378.749 477.562 380.103 476.243 381.066 474.649C383.643 470.56 406.413 432.346 400.658 368.164L402.127 365.208C410.2 349.001 409.857 331.687 401.216 314.693L460.025 257.868C474.111 246.458 475.142 225.592 474.987 206.869V206.367C474.987 205.598 474.987 204.863 474.987 204.518V199.063C475.082 182.709 473.39 167.885 469.834 154.037L474.463 154.902V141.979V103.28V102.416C474.463 101.612 474.463 100.609 474.412 99.5459V99.2779C474.317 92.648 474.188 83.5632 471.835 74.5131C465.823 51.088 449.16 45.6856 442.263 44.4581L441.138 44.2507L440.21 44.0864L440.176 44Z" fill="#1BEFEF"/>
</g>
<g clip-path="url(#clip0_473_9908)">
<path d="M439.235 54.7207L440.36 54.9196C446.373 56.0003 457.186 60.3231 461.49 77.113C463.491 84.8941 463.611 93.2718 463.697 99.3583C463.697 100.603 463.697 101.736 463.766 102.721V141.886L454.446 140.157C455.228 142.552 456.053 145.154 457.023 148.371C462.022 163.647 464.401 180.204 464.281 198.965V204.152C464.281 204.792 464.281 205.726 464.281 206.884C464.418 223.242 463.663 241.389 452.969 249.706L387.692 312.759C396.058 325.382 401.589 342.155 392.519 360.362C391.66 351.941 391.411 349.815 390.398 347.394C389.288 344.752 387.654 342.366 385.596 340.382C402.843 421.652 371.854 469.073 371.854 469.073C371.844 469.102 371.825 469.127 371.801 469.146C371.776 469.164 371.747 469.175 371.716 469.177C371.693 469.177 371.669 469.172 371.647 469.162C371.626 469.152 371.606 469.138 371.591 469.12C371.575 469.102 371.564 469.08 371.557 469.057C371.551 469.034 371.549 469.01 371.553 468.987C372.721 462.407 372.215 458.447 372.077 457.592C372.071 457.556 372.052 457.523 372.023 457.501C371.994 457.479 371.959 457.468 371.923 457.471L369.938 458.102C362.852 475.531 337.42 530.008 284.477 565.118L256.451 587.925L256.004 588.288L255.558 587.934L227.42 565.265C174.305 530.423 148.607 476.076 141.426 458.681L139.442 458.058H139.39C139.354 458.058 139.32 458.071 139.293 458.095C139.266 458.119 139.249 458.152 139.244 458.188C139.107 459.053 138.617 463.004 139.82 469.574C139.82 469.635 139.674 469.652 139.528 469.661C131.798 456.338 120.013 431.957 118.622 402.32C117.196 371.896 126.919 339.941 127.16 339.44C117.712 341.791 113.993 357.596 113.993 357.596C113.194 348.686 114.205 339.705 116.964 331.201L54.6162 268.45V56.8389L67.4998 56.7611L95.7235 56.5882L108.684 56.519V56.9945C111.312 55.7953 114.118 55.0416 116.99 54.7639L117.617 54.7034H120.537H121.087C123.562 54.919 125.996 55.4776 128.319 56.3634L164.634 56.2164L181.666 56.1645H190.762H194.584L221.21 56.1127H229.438H239.874H253.72C256.753 56.0851 259.76 56.6848 262.554 57.8745C265.347 59.0642 267.869 60.8187 269.962 63.0292L270.683 56.1127H300.255H313.465L330.704 56.1559H331.228C334.143 56.2629 337.017 56.8802 339.722 57.9801L339.653 56.1732H353.147L373.177 56.2596H378.742H379.189L391.643 56.3202L405.764 56.3893L406.683 56.5277C411.506 57.2412 415.972 59.4997 419.42 62.9687C421.405 60.5895 423.839 58.6301 426.581 57.204C429.324 55.7779 432.32 54.9133 435.396 54.6602L435.98 54.6083H439.27M440.206 43.8877H435.49L435.009 43.9309L434.425 43.9915C428.865 44.4805 423.508 46.3295 418.819 49.3777C415.512 47.6448 411.942 46.4762 408.254 45.9194L407.344 45.7811L406.579 45.6687H405.815H401.864L391.686 45.6168L379.232 45.565H378.794H373.228L362.286 45.5131H353.19L339.696 45.4612H328.608H318.129H300.272H289.605H270.709H261.072L260.986 46.2739C258.594 45.7415 256.152 45.4748 253.702 45.4785H239.823H229.387H211.178H204.736H192.136H190.787H181.7H171.084H164.651L130.149 45.6168C127.518 44.7847 124.805 44.2454 122.058 44.0087H121.517L121.061 43.9655H117.162L116.647 44.0174L116.011 44.0779C113.293 44.356 110.614 44.9359 108.023 45.807L95.7235 45.8762L67.4913 46.0405L54.6076 46.1183L44.0259 46.1874V272.834L47.1437 275.972L105.111 334.322C103.272 342.249 102.709 350.422 103.445 358.53L109.655 425.689L110.385 422.421C114.525 444.113 123.088 462.399 130.38 475.004L133.644 480.632L139.811 480.321C145.353 491.125 151.603 501.545 158.518 511.515C176.384 537.253 197.478 558.201 221.219 573.902L248.996 596.259L249.442 596.622L256.125 602L262.781 596.588L263.228 596.225L290.885 573.746C314.556 557.968 335.548 536.872 353.276 511.048C360.117 501.07 366.297 490.65 371.777 479.854H371.871C373.725 479.851 375.547 479.369 377.163 478.453C378.778 477.537 380.133 476.218 381.096 474.624C383.672 470.534 406.442 432.312 400.687 368.118L402.156 365.161C410.23 348.95 409.886 331.633 401.246 314.635L460.055 257.799C474.141 246.387 475.172 225.516 475.017 206.789V206.288C475.017 205.518 475.017 204.784 475.017 204.438V198.982C475.112 182.625 473.42 167.797 469.864 153.947L474.493 154.812V141.886V103.18V102.315C474.493 101.511 474.493 100.508 474.442 99.4448V99.1768C474.347 92.5455 474.219 83.4589 471.865 74.4069C465.853 50.9771 449.19 45.5736 442.293 44.3459L441.168 44.1384L440.24 43.9742L440.206 43.8877Z" fill="#1BEFEF"/>
<path d="M464.341 206.858C464.341 205.7 464.341 204.766 464.341 204.126V198.939C464.461 180.178 462.082 163.621 457.083 148.344C456.07 145.128 455.245 142.526 454.507 140.131L463.826 141.86V102.695C463.826 101.71 463.774 100.577 463.757 99.3322C463.671 93.2802 463.551 84.8939 461.55 77.0869C457.255 60.297 446.467 55.9741 440.421 54.8934L439.295 54.6946H436.006L435.422 54.7465C432.346 55.0004 429.35 55.8655 426.608 57.2915C423.866 58.7176 421.432 60.6765 419.446 63.0549C415.998 59.586 411.532 57.3274 406.708 56.6139L405.789 56.4756L391.669 56.4064L379.215 56.3459H378.768H373.202L353.173 56.2594H339.679L339.748 58.0664C337.043 56.9665 334.169 56.3492 331.253 56.2422H330.73L313.491 56.1989H300.281L270.666 56.1298L269.945 63.0463C267.852 60.8358 265.33 59.0813 262.537 57.8916C259.743 56.7019 256.736 56.1022 253.703 56.1298H239.84H229.438H221.27L194.644 56.1816H190.788H181.692L164.66 56.2335L128.345 56.3805C126.022 55.4947 123.588 54.9361 121.113 54.7205H120.563H117.643L117.016 54.781C114.144 55.0587 111.338 55.8124 108.71 57.0116V56.5188L95.7494 56.588L67.5257 56.7609L54.6421 56.8387V268.398L119.395 333.578L246.617 277.908L384.712 315.699L453.021 249.68C463.723 241.363 464.479 223.216 464.341 206.858Z" fill="#461E0E"/>
<path d="M67.603 69.7988L95.8181 69.6345C95.8639 78.3782 95.9098 87.1218 95.9556 95.8655C89.0843 96.4534 85.7088 96.73 78.8719 97.3871L78.975 138.8C84.7468 137.486 87.6241 136.846 93.3874 135.61C93.4389 145.604 93.4733 150.541 93.5249 160.509C87.7358 162.238 84.8413 163.103 79.0351 164.936L79.2154 239.487C74.5773 242.029 72.2497 243.326 67.603 245.989V69.7988Z" fill="#F1E7DE"/>
<path d="M137.235 173.287C137.484 187.596 136.917 212.711 121.465 220.268L119.747 221.072C102.509 229.164 103.282 192.126 103.024 184.924C102.853 160.422 102.684 135.926 102.518 111.436C102.758 100.084 101.049 69.4614 118.313 67.7668H120.031C136.273 69.1674 136.565 95.7356 136.582 107.079C136.788 129.148 137.006 151.218 137.235 173.287ZM124.961 108.782C124.849 96.5223 122.728 92.0871 119.352 92.3551C115.977 92.6231 114.018 97.4561 114.121 110.139C114.322 133.736 114.525 157.33 114.731 180.921C114.826 192.161 116.715 197.348 120.374 195.93C124.033 194.512 125.725 188.149 125.622 177.212C125.41 154.399 125.19 131.589 124.961 108.782Z" fill="#F1E7DE"/>
<path d="M141.83 209.565C145.099 184.129 148.695 158.748 152.617 133.422C148.709 112.119 145.008 90.799 141.641 69.4442L153.39 69.3924C155.46 84.4618 157.633 99.5052 159.995 114.523C161.997 99.4793 163.972 84.4185 165.819 69.3491H177.105C173.996 90.0987 170.697 110.848 167.408 131.529C171.367 153.143 175.258 174.818 178.763 196.544C174.356 197.876 172.14 198.585 167.674 200.072C165.252 184.325 162.695 168.604 160.004 152.91C157.53 170.345 155.211 187.798 153.047 205.268C148.572 206.867 146.33 207.74 141.83 209.565Z" fill="#F1E7DE"/>
<path d="M204.89 89.528C200.785 89.675 198.732 89.7442 194.583 89.9171C194.583 81.9544 194.583 77.8564 194.583 69.228L226.578 69.1675C226.423 77.4241 226.337 81.3319 226.183 88.9228C222.154 89.0093 220.17 89.0612 216.082 89.1736C215.635 122.027 215.183 154.881 214.725 187.734C210.551 188.486 208.438 188.91 204.186 189.835C204.415 156.394 204.65 122.958 204.89 89.528Z" fill="#F1E7DE"/>
<path d="M240.527 184.406C236.619 184.691 234.643 184.881 230.649 185.348C231.637 146.615 232.874 107.892 233.862 69.1589H253.685C264.757 69.1589 265.555 84.3753 264.748 92.165C264.499 97.2055 264.379 99.6608 264.121 104.511C263.52 116.2 259.363 120.704 256.597 122.174C259.543 124.344 262.841 128.952 262.249 140.131C261.745 149.745 261.261 159.365 260.797 168.99C260.458 173.695 260.651 178.423 261.373 183.083C261.373 183.42 261.373 183.593 261.373 183.947C256.013 183.852 253.883 183.861 250.087 183.947C249.666 181.898 249.399 178.06 249.786 169.838C250.198 161.031 250.636 152.221 251.1 143.408C251.487 135.86 250.336 132.696 246.874 132.8C245.156 132.843 244.297 132.877 242.58 132.938C241.835 150.097 241.151 167.253 240.527 184.406ZM243.104 117.419C244.873 117.367 245.758 117.35 247.518 117.315C251.126 117.237 252.595 113.477 252.964 106.309C253.161 102.488 253.256 100.569 253.453 96.6349C253.84 88.8538 252.663 85.6894 248.927 85.7154H244.349C243.971 96.3034 243.582 106.871 243.181 117.419H243.104Z" fill="#F1E7DE"/>
<path d="M294.552 163.336C289.441 162.835 286.822 162.619 281.668 162.281C280.706 170.849 280.208 175.25 279.186 184.665C274.531 184.345 272.177 184.215 267.419 184.051C272.658 145.76 278.336 107.563 282.355 69.1157H296.218C299.723 108.843 304.558 148.422 308.767 188.08C303.983 187.302 301.561 186.956 296.656 186.351C295.772 176.702 295.359 172.163 294.552 163.336ZM283.644 145.388C287.389 145.613 289.244 145.734 292.929 146.028C291.984 135.852 291.52 130.975 290.627 121.033C289.897 112.024 289.106 103.015 288.849 93.9893C288.29 102.955 287.328 111.894 286.409 120.791C285.336 130.682 284.786 135.471 283.644 145.422V145.388Z" fill="#F1E7DE"/>
<path d="M313.405 69.2021C320.337 69.2021 323.781 69.2021 330.635 69.2021C344.541 69.8073 345.236 89.9518 345.391 99.9289C346.233 121.941 347.092 143.95 347.968 165.956C348.466 174.342 349.119 197.037 334.56 193.363C327.165 191.538 323.394 190.717 315.664 189.29C314.968 149.287 314.11 109.24 313.405 69.2021ZM327.216 171.982C328.874 172.302 329.699 172.466 331.348 172.803C335.548 173.668 336.776 169.449 336.501 160.855C335.82 141.022 335.136 121.186 334.449 101.347C334.139 92.2256 332.782 88.1016 328.9 87.9546L324.837 87.799C325.636 115.897 326.443 143.953 327.216 171.982Z" fill="#F1E7DE"/>
<path d="M379.103 69.4182C379.438 79.0062 379.61 83.5884 379.962 92.5367C373.769 92.1044 370.643 91.9056 364.347 91.5252C364.776 102.43 365.226 113.332 365.695 124.232C370.952 125.027 373.554 125.442 378.716 126.307C379.069 134.857 379.24 139.076 379.575 147.61C374.422 146.417 371.845 145.837 366.546 144.739C367.061 156.889 367.562 169.042 368.049 181.198C374.602 183.221 377.815 184.293 384.128 186.524C384.471 195.697 384.643 200.357 384.986 210.23C376.269 206.504 367.267 203.123 358.249 200.21C356.643 156.575 354.667 112.949 353.095 69.3145L379.103 69.4182Z" fill="#F1E7DE"/>
<path d="M401.658 217.804C397.784 215.936 395.817 215.029 391.832 213.248C390.183 165.325 388.199 117.419 386.558 69.4961L404.733 69.5825C416.869 71.4154 415.941 92.2255 416.465 100.707C416.628 107.623 416.706 110.987 416.869 117.687C417.255 133.837 414.395 139.509 411.93 140.901C417.084 148.517 418.054 158.192 418.08 167.209C418.406 180.432 418.721 193.651 419.025 206.867C419.109 213.349 419.533 219.822 420.296 226.259C420.296 226.718 420.296 226.951 420.296 227.409C416.646 225.412 414.799 224.426 411.054 222.498C410.479 219.568 409.912 214.389 409.611 203.59C409.285 191.884 408.944 180.175 408.589 168.463C408.288 158.339 406.871 153.696 403.607 152.806L399.467 151.69C400.24 173.702 400.971 195.74 401.658 217.804ZM398.789 131.477L402.963 132.341C406.399 133.024 407.404 128.2 407.12 118.612C406.966 113.503 406.888 110.926 406.734 105.704C406.433 95.3293 405.11 91.1362 401.658 90.9028L397.423 90.6175C397.87 104.197 398.325 117.802 398.789 131.434V131.477Z" fill="#F1E7DE"/>
<path d="M437.878 239.418C426.403 231.395 425.132 211.043 425.141 198.446C424.969 189.507 424.791 180.573 424.608 171.645C428.318 172.95 430.157 173.607 433.79 174.947C433.91 183.766 433.97 188.21 434.09 197.27C434.211 206.331 435.714 211.7 438.385 213.057C441.056 214.415 442.301 209.435 442.224 198.498C442.224 197.772 442.224 197.409 442.224 196.683C442.33 187.844 440.96 179.049 438.17 170.668C435.387 162.109 433.97 157.95 431.084 149.806C426.388 136.848 423.917 123.18 423.775 109.387C423.775 107.58 423.723 106.673 423.68 104.857C423.826 95.1997 421.963 69.0898 436.564 67.7498H438.127C451.87 70.2051 450.504 93.4015 450.848 103.197C450.848 112.534 450.848 117.108 450.848 126.177C447.249 125.494 445.436 125.157 441.786 124.448C441.786 117.99 441.717 114.739 441.666 108.142C441.597 97.8367 440.257 93.4447 437.62 93.2199C434.76 93.0037 433.472 96.8511 433.601 106.456C433.601 107.079 433.601 107.39 433.601 108.013C433.73 117.825 434.898 122.485 437.835 131.209C440.661 139.509 442.052 143.719 444.767 152.322C449.705 167.391 451.492 182.988 451.397 198.827V203.755C451.217 210.308 453.278 244.104 439.373 240.309L437.878 239.418Z" fill="#F1E7DE"/>
<path d="M302.445 202.406L286.65 216.844C286.244 217.213 285.713 217.411 285.166 217.397C284.619 217.382 284.099 217.157 283.713 216.766C278.095 211.389 290.163 198.783 293.736 195.533C293.346 195.876 293.088 196.346 293.004 196.861C292.921 197.376 293.018 197.904 293.279 198.355C293.54 198.805 293.948 199.151 294.434 199.331C294.921 199.512 295.454 199.517 295.943 199.345L295.677 199.44C293.899 200.115 292.13 200.824 290.378 201.541C282.081 205.051 273.912 209.322 266.844 214.899C262.176 218.217 258.828 223.094 257.396 228.663C257.265 229.161 256.974 229.601 256.568 229.915C256.163 230.229 255.665 230.399 255.154 230.399C254.642 230.399 254.145 230.229 253.739 229.915C253.334 229.601 253.043 229.161 252.912 228.663C251.532 223.34 248.375 218.657 243.971 215.4C235.219 208.432 224.852 203.513 214.399 199.605C214.896 199.73 215.421 199.679 215.886 199.46C216.35 199.242 216.726 198.869 216.95 198.404C217.174 197.94 217.232 197.412 217.114 196.91C216.997 196.407 216.711 195.961 216.305 195.645C217.733 196.883 219.029 198.268 220.171 199.778C223.065 203.685 228.167 210.386 223.709 215.011C223.529 215.208 223.31 215.364 223.065 215.47C222.821 215.576 222.557 215.628 222.291 215.624C222.025 215.62 221.763 215.559 221.522 215.446C221.281 215.333 221.066 215.17 220.892 214.968L214.072 207.023L213.978 206.91L214.115 206.72L214.253 206.789L223.701 211.268L220.66 211.475C220.77 211.325 220.824 211.142 220.815 210.956C220.815 209.314 219.844 207.654 218.942 206.089C217.439 203.635 215.629 201.386 213.557 199.397C213.179 199.122 212.882 198.748 212.698 198.316C212.53 197.876 212.494 197.397 212.593 196.936C212.693 196.476 212.923 196.054 213.257 195.724C213.591 195.393 214.013 195.168 214.472 195.076C214.931 194.983 215.407 195.028 215.842 195.204L215.979 195.247L217.027 195.654C219.14 196.443 221.23 197.282 223.297 198.17C231.715 201.624 239.638 206.191 246.857 211.752C249.41 213.686 251.637 216.022 253.453 218.668C255.259 221.364 256.595 224.349 257.404 227.496H252.921C254.6 220.932 258.515 215.17 263.983 211.216C273.062 204.109 283.386 199.112 294.045 195.066C294.447 194.858 294.899 194.768 295.349 194.804C295.799 194.84 296.23 195.002 296.594 195.272C296.958 195.541 297.24 195.907 297.409 196.329C297.578 196.751 297.626 197.211 297.55 197.659C297.438 198.262 297.103 198.8 296.613 199.164C293.847 201.763 291.376 204.663 289.244 207.809C288.179 209.539 286.839 211.518 286.865 213.317L283.824 213.135L301.861 201.628L302.256 201.377L302.763 202.06L302.42 202.38L302.445 202.406Z" fill="#1BEFEF"/>
<path d="M295.277 197.211C295.257 197.184 295.229 197.165 295.196 197.158C295.229 197.165 295.257 197.184 295.277 197.211Z" fill="#F68B3D"/>
<path d="M214.967 197.365C214.952 197.364 214.937 197.368 214.925 197.376C214.912 197.384 214.902 197.395 214.897 197.409C214.902 197.395 214.912 197.384 214.925 197.376C214.937 197.368 214.952 197.364 214.967 197.365Z" fill="#F68B3D"/>
<path d="M295.248 197.314C295.258 197.3 295.264 197.283 295.264 197.266C295.264 197.249 295.258 197.232 295.248 197.219C295.258 197.232 295.264 197.249 295.264 197.266C295.264 197.283 295.258 197.3 295.248 197.314Z" fill="#F68B3D"/>
<path d="M139.708 469.695C139.734 469.702 139.762 469.702 139.788 469.695C139.762 469.702 139.734 469.702 139.708 469.695Z" fill="#F68B3D"/>
<path d="M214.889 197.426C214.879 197.439 214.873 197.454 214.873 197.471C214.873 197.487 214.879 197.502 214.889 197.515C214.879 197.502 214.873 197.487 214.873 197.471C214.873 197.454 214.879 197.439 214.889 197.426Z" fill="#F68B3D"/>
<path d="M388.336 340.84L388.448 340.987L388.336 340.84Z" fill="#F68B3D"/>
<path d="M139.846 469.514C139.854 469.534 139.859 469.556 139.859 469.579C139.859 469.601 139.854 469.623 139.846 469.644C139.854 469.623 139.859 469.601 139.859 469.579C139.859 469.556 139.854 469.534 139.846 469.514Z" fill="#F68B3D"/>
<path d="M393.902 351.985C397.655 338.956 394.623 325.442 384.823 311.704C379.119 303.869 372.254 296.961 364.467 291.223L362.612 289.935L364.227 288.352C373.268 279.541 380.001 268.613 383.827 256.545C387.014 246.264 388.409 235.506 387.95 224.746C387.581 214.301 385.848 203.949 382.796 193.959L379.67 198.533L377.291 201.991L376.311 197.919C372.206 180.143 359.683 169.215 356.376 166.595C341.826 173.348 286.934 216.049 286.367 216.49L285.078 217.493L283.927 216.343C283.464 215.866 283.113 215.29 282.899 214.659C282.685 214.028 282.614 213.357 282.69 212.694C282.922 209.504 285.688 205.293 288.462 201.87C278.688 206.115 270.64 210.948 264.464 216.265C260.745 219.473 258.11 223.767 256.923 228.55L255.205 235.622L253.393 228.559C252.179 223.771 249.51 219.485 245.757 216.299C239.427 210.887 231.156 206.011 221.055 201.749C222.996 204.472 224.774 207.68 224.972 210.334C225.063 211.08 224.988 211.838 224.752 212.551C224.515 213.265 224.124 213.916 223.606 214.458L222.455 215.608L221.167 214.614C220.626 214.199 168.069 173.685 153.597 167.062C150.316 169.699 137.844 180.697 133.842 198.489L132.983 202.276L130.586 199.242L127.666 195.541C124.998 204.818 123.582 214.415 123.458 224.072C123.234 241.009 127.048 266.021 146.519 289.001L147.773 290.488L146.244 291.681C139.925 297.019 134.339 303.18 129.633 310.001C123.509 318.802 116.681 331.978 115.719 347.835C118.029 343.408 121.594 338.791 126.747 337.512L127.185 339.319L129.032 339.388V339.613L128.972 339.846C119.421 374.316 123.251 407.498 128.113 429.268C130.415 439.548 133.47 449.642 137.252 459.467C137.303 458.672 137.372 458.119 137.423 457.799C137.471 457.514 137.578 457.243 137.738 457.003C137.898 456.763 138.107 456.56 138.35 456.408C138.594 456.256 138.868 456.158 139.152 456.12C139.436 456.083 139.726 456.107 140 456.191L141.993 456.822L142.852 457.081L143.178 457.885C150.065 474.209 158.638 489.759 168.756 504.278C185.333 528.157 204.779 547.688 226.587 562.36L226.99 561.322L228.846 563.916L256.064 585.858L283.189 563.795L285.018 561.201L285.439 562.256C307.178 547.48 326.521 527.846 342.986 503.88C353.034 489.313 361.527 473.72 368.324 457.358L368.65 456.554L369.509 456.294L371.493 455.655C371.691 455.593 371.896 455.561 372.103 455.56C372.585 455.559 373.051 455.733 373.416 456.051C373.78 456.369 374.019 456.808 374.087 457.289C374.235 458.308 374.316 459.336 374.327 460.367C378.153 451.673 381.175 442.644 383.354 433.392C388.267 412.988 392.261 379.953 383.449 338.419L382.968 336.163H385.261C386.421 336.163 391.007 339.388 392.588 344.973C393.201 347.273 393.64 349.617 393.902 351.985Z" fill="#F68B3D"/>
<path d="M139.365 458.015C139.399 458.007 139.434 458.007 139.468 458.015H139.416H139.365Z" fill="#F68B3D"/>
<path d="M372.017 457.419C372.031 457.41 372.048 457.406 372.064 457.406C372.081 457.406 372.097 457.41 372.112 457.419H372.06H372.017Z" fill="#F68B3D"/>
<path d="M139.253 458.153C139.256 458.133 139.264 458.114 139.276 458.098C139.288 458.081 139.304 458.068 139.322 458.058C139.304 458.068 139.288 458.081 139.276 458.098C139.264 458.114 139.256 458.133 139.253 458.153Z" fill="#F68B3D"/>
<path d="M372.137 457.436C372.172 457.457 372.196 457.491 372.206 457.531C372.196 457.491 372.172 457.457 372.137 457.436Z" fill="#F68B3D"/>
<path d="M371.682 468.926C371.673 468.946 371.669 468.968 371.669 468.991C371.669 469.013 371.673 469.035 371.682 469.055C371.673 469.035 371.669 469.013 371.669 468.991C371.669 468.968 371.673 468.946 371.682 468.926Z" fill="#F68B3D"/>
<path d="M389.47 342.448L389.29 342.128L389.47 342.448Z" fill="#F68B3D"/>
<path d="M388.981 341.67L388.834 341.454L388.981 341.67Z" fill="#F68B3D"/>
<path d="M390.758 345.431C390.672 345.111 390.569 344.809 390.458 344.506C390.569 344.809 390.672 345.111 390.758 345.431Z" fill="#F68B3D"/>
<path d="M390.191 343.858C390.191 343.797 390.14 343.719 390.105 343.65C390.14 343.719 390.166 343.797 390.191 343.858Z" fill="#F68B3D"/>
<path d="M389.874 343.166C389.814 343.062 389.771 342.95 389.71 342.846C389.771 342.959 389.814 343.071 389.874 343.166Z" fill="#F68B3D"/>
<path d="M137.123 345.327C137.123 345.327 132.974 348.457 132.974 352.633C132.974 352.676 135.044 347.411 137.123 345.327Z" fill="#CDAE9D"/>
<path d="M233.492 406.937C233.492 406.937 231.422 419.473 238.646 435.13C242.27 442.963 238.646 443.49 234.111 442.047C230.996 441.026 228.176 439.254 225.897 436.885C223.619 434.517 221.95 431.622 221.038 428.456C217.985 417.706 216.254 406.62 215.885 395.446C214.854 369.336 199.308 353.671 195.159 352.624C195.159 352.624 202.417 371.429 200.313 376.642C200.313 376.642 193.055 352.624 171.29 345.319L190.985 373.512L200.313 395.446V413.196C200.313 413.196 205.466 433.081 206.522 433.081C207.579 433.081 213.78 442.479 213.78 442.479L231.396 447.666L240.724 448.712C240.724 448.712 246.943 444.537 247.982 444.537C249.021 444.537 252.122 439.349 252.122 439.349C252.122 439.349 247.982 430.989 247.982 429.951C247.982 428.914 238.654 418.461 238.654 418.461L233.492 406.937Z" fill="#CDAE9D"/>
<path d="M255.257 565.671C255.257 565.671 238.68 556.273 235.571 531.209C235.571 531.209 232.462 535.385 233.492 538.515C233.492 538.515 208.584 517.636 203.431 485.258C198.277 452.88 207.571 448.712 207.571 448.712L221.047 477.952L232.445 501.97L244.899 514.497L250.052 533.293L255.695 548.207L255.257 565.671Z" fill="#CDAE9D"/>
<path d="M255.257 460.194C255.257 460.194 240.75 466.462 221.064 453.934L222.687 445.073L244.899 450.796H254.226L255.257 460.194Z" fill="#CDAE9D"/>
<path d="M372.197 344.731C372.197 344.731 376.363 347.835 376.38 352.019C376.38 352.019 374.284 346.806 372.197 344.731Z" fill="#CDAE9D"/>
<path d="M276.137 406.833C276.137 406.833 278.267 419.352 271.095 435.052C267.505 442.902 271.095 443.404 275.665 441.969C278.784 440.937 281.605 439.151 283.878 436.766C286.151 434.381 287.808 431.471 288.703 428.291C291.718 417.529 293.405 406.434 293.728 395.256C294.63 369.138 310.098 353.394 314.238 352.33C314.238 352.33 307.075 371.169 309.179 376.374C309.179 376.374 316.308 352.322 338.039 344.904L318.49 373.201L309.274 395.17L309.36 412.928C309.36 412.928 304.275 432.813 303.244 432.813C302.214 432.813 296.038 442.254 296.038 442.254L278.396 447.545L269.086 448.643C269.086 448.643 262.85 444.502 261.811 444.502C260.771 444.502 257.645 439.314 257.645 439.314C257.645 439.314 261.751 430.937 261.742 429.891C261.733 428.845 271.01 418.383 271.01 418.383L276.137 406.833Z" fill="#CDAE9D"/>
<path d="M255.206 565.671C255.206 565.671 271.74 556.161 274.72 531.088C274.72 531.088 277.846 535.256 276.833 538.394C276.833 538.394 301.595 517.376 306.611 484.981C311.627 452.586 302.317 448.453 302.317 448.453L288.995 477.762L277.718 501.831L265.341 514.428L260.256 533.25L254.682 548.19L255.206 565.671Z" fill="#CDAE9D"/>
<path d="M254.226 460.194C254.226 460.194 269.18 466.393 288.806 453.761L287.14 444.908L264.954 450.744L253.187 449.75L254.226 460.194Z" fill="#CDAE9D"/>
<path d="M227.3 333.967C230.014 333.154 200.871 313.996 200.871 313.996C200.871 313.996 201.816 341.575 227.3 333.967Z" fill="#CDAE9D"/>
<path d="M284.09 331.927L314.324 310.831C314.324 310.831 313.164 337.823 284.09 331.927Z" fill="#CDAE9D"/>
<path d="M143.659 399.942C143.659 399.942 144.63 391.167 148.503 384.38C148.503 384.38 142.688 391.21 141.718 396.078C141.718 396.078 139.785 385.357 152.377 364.884C151.77 368.103 151.77 371.409 152.377 374.628C152.377 374.628 152.377 366.846 157.221 360.976L160.124 374.628L154.318 387.259L143.659 399.942Z" fill="#E15F03"/>
<path d="M138.815 380.438C138.815 380.438 133.971 367.763 147.533 355.088C147.533 355.088 136.882 374.584 138.815 380.438Z" fill="#E15F03"/>
<path d="M145.6 349.218C145.6 349.218 141.718 352.14 141.718 356.048C141.718 356.065 143.659 351.189 145.6 349.218Z" fill="#E15F03"/>
<path d="M230.838 351.189C230.838 351.189 232.779 351.189 236.653 347.29C236.653 347.29 225.994 371.662 191.131 347.29C191.131 347.29 199.368 352.65 215.833 347.774C232.298 342.898 217.766 347.774 217.766 347.774C217.766 347.774 203.242 345.82 199.368 340.953C199.35 343.063 200.03 345.119 201.3 346.797C201.3 346.797 185.84 337.045 188.709 323.402C188.709 323.402 188.709 331.183 194.524 333.146C194.524 333.146 189.679 322.425 192.582 318.526C192.582 318.526 184.852 311.696 176.117 309.751C176.117 309.751 193.553 301.97 231.328 327.301C231.328 327.301 227.454 314.627 223.598 311.739L245.878 333.189L241.033 338.065C241.033 338.065 235.219 339.042 234.257 339.042C233.295 339.042 231.345 341.964 231.345 341.964L230.838 351.189Z" fill="#E15F03"/>
<path d="M175.627 300.482C185.578 298.396 195.944 300.135 204.684 305.359C204.684 305.359 194.025 291.707 175.627 300.482Z" fill="#E15F03"/>
<path d="M246.333 283.909C245.061 282.522 243.573 281.353 241.927 280.45C233.406 275.799 223.761 280.208 222.12 280.986C230.299 279.464 238.744 280.483 246.333 283.909Z" fill="#E15F03"/>
<path d="M181.434 293.661C183.352 291.966 185.761 290.938 188.305 290.73C191.438 290.549 194.518 291.599 196.894 293.661C196.894 293.661 186.278 290.73 181.434 293.661Z" fill="#E15F03"/>
<path d="M198.869 261.482C198.869 260.505 198.869 249.784 193.063 240.032C187.257 230.28 193.063 239.055 193.063 239.055C193.063 239.055 197.907 242.954 198.869 247.83C198.869 247.83 195.966 227.357 183.409 218.582C183.409 218.582 185.23 219.498 186.226 227.582C186.226 227.824 186.286 228.075 186.312 228.334C187.283 237.11 161.129 200.054 161.129 200.054C161.129 200.054 161.129 209.807 165.003 215.617C165.003 215.617 151.441 204.887 151.441 194.158C151.441 194.158 133.034 207.809 133.034 236.089C133.034 264.369 145.634 276.067 145.634 276.067L158.226 269.237L183.409 263.392L198.869 261.482Z" fill="#E15F03"/>
<path d="M367.525 399.363C367.525 399.363 366.511 390.588 362.603 383.801C362.603 383.801 368.444 390.596 369.474 395.464C369.474 395.464 371.355 384.734 358.661 364.339C359.283 367.558 359.301 370.866 358.712 374.092C358.712 374.092 358.712 366.311 353.799 360.466L350.965 374.126L356.84 386.775L367.525 399.363Z" fill="#E15F03"/>
<path d="M157.221 284.886C157.221 284.886 170.783 275.133 191.122 275.133C191.122 275.133 169.813 284.886 166.91 287.808C164.007 290.73 157.221 284.886 157.221 284.886Z" fill="#E15F03"/>
<path d="M243.43 323.886C243.43 323.886 244.4 316.105 243.43 315.111C242.459 314.117 251.16 325.832 251.16 325.832L249.227 329.739H245.354L242.442 326.809L243.43 323.886Z" fill="#E15F03"/>
<path d="M365.678 417.908L351.936 377.999C366.237 333.042 339.911 305.903 339.911 305.903C339.911 305.903 349.788 343.884 316.892 351.846C283.996 359.809 281.162 372.51 281.162 372.51C278.929 367.53 278.911 365.066 279.307 363.864C278.482 364.788 277.733 365.777 277.065 366.821C274.213 371.308 273.629 375.717 273.002 380.507C272.647 383.374 272.486 386.263 272.521 389.152C276.438 396.934 271.662 404.758 271.662 404.758L265.882 411.614L255.06 437.015L245.371 411.64L239.556 404.81C239.556 404.81 234.712 397.029 238.586 389.248C238.586 389.248 239.488 374.68 231.714 364.019C232.118 365.221 232.109 367.685 229.902 372.665C229.902 372.665 226.999 359.991 194.06 352.184C161.121 344.377 170.818 306.362 170.818 306.362C170.818 306.362 144.63 333.656 159.154 378.484L145.6 418.461C145.6 418.461 144.63 440.888 145.6 440.888C146.571 440.888 149.474 455.56 149.474 455.56L154.318 466.289L162.048 468.234L163.981 480.909L173.669 498.46L180.455 510.166L190.152 524.725L227.944 558.85L243.404 568.602L256.064 576.763V577.395L256.528 577.066L257.035 577.395V576.72L268.656 568.559L284.116 558.729L321.728 524.405L331.339 509.708L338.056 497.975L347.658 480.373L349.531 467.69L357.261 465.701L362.054 454.946C362.054 454.946 364.879 440.309 365.85 440.3C366.821 440.292 365.678 417.908 365.678 417.908Z" fill="#F1E7DE"/>
<path d="M217.276 249.793C217.276 249.793 167.872 180.558 146.562 181.492L154.292 171.748L167.846 182.469C167.846 182.469 212.432 222.481 217.276 249.793Z" fill="#FFDAAD"/>
<path d="M238.698 235.865C215.507 203.011 226.999 216.844 209.495 214.683L211.427 225.403C211.427 225.403 235.786 228.066 238.698 235.865Z" fill="#FFDAAD"/>
<path d="M255.051 240.032C255.051 240.032 253.118 222.481 235.683 218.582C218.247 214.683 233.741 225.404 233.741 225.404C233.741 225.404 254.089 235.156 255.051 240.032Z" fill="#FFDAAD"/>
<path d="M235.682 406.764C235.682 406.764 233.733 418.461 240.527 433.081C243.911 440.395 240.527 440.862 236.284 439.539C233.373 438.591 230.738 436.939 228.609 434.728C226.479 432.517 224.921 429.814 224.07 426.856C221.201 416.819 219.571 406.464 219.217 396.026C218.272 371.697 203.714 356.999 199.84 356.065C199.84 356.065 206.626 373.616 204.684 378.484C204.684 378.484 197.908 356.065 177.56 349.235L195.941 375.561L204.659 396.034V412.617C204.659 412.617 209.503 431.144 210.473 431.144C211.444 431.144 217.25 439.92 217.25 439.92L233.733 444.787L242.451 445.764C242.451 445.764 248.265 441.865 249.236 441.865C250.207 441.865 253.11 436.989 253.11 436.989C253.11 436.989 249.236 429.208 249.236 428.213C249.236 427.219 240.527 417.519 240.527 417.519L235.682 406.764Z" fill="#CDAE9D"/>
<path d="M223.091 546.192C223.091 545.224 168.842 501.347 169.838 428.213C169.838 428.213 150.47 450.07 152.892 463.029C155.314 475.989 205.681 543.27 205.681 543.27L222.146 551.051L223.117 547.152L223.091 546.192Z" fill="#CDAE9D"/>
<path d="M372.266 379.841C372.266 379.841 377.05 367.141 363.419 354.535C363.428 354.535 374.173 373.979 372.266 379.841Z" fill="#E15F03"/>
<path d="M365.334 348.673C365.334 348.673 369.217 351.578 369.243 355.486C369.243 355.486 367.276 350.619 365.334 348.673Z" fill="#E15F03"/>
<path d="M280.114 351.059C280.114 351.059 278.181 351.059 274.282 347.195C274.282 347.195 285.061 371.515 319.804 346.961C319.804 346.961 311.593 352.365 295.102 347.575C278.611 342.786 293.169 347.575 293.169 347.575C293.169 347.575 307.685 345.552 311.541 340.659C311.612 342.778 310.937 344.854 309.634 346.52C309.634 346.52 325.095 336.69 322.106 323.056C322.106 323.056 322.106 330.837 316.342 332.834C316.342 332.834 321.135 322.088 318.206 318.206C318.206 318.206 325.936 311.341 334.628 309.344C334.628 309.344 317.15 301.632 279.504 327.171C279.504 327.171 283.317 314.48 287.174 311.531L265.005 333.146L269.875 337.996C269.875 337.996 275.69 338.938 276.661 338.93C277.631 338.921 279.581 341.843 279.581 341.843L280.114 351.059Z" fill="#E15F03"/>
<path d="M335.084 300.076C325.123 298.043 314.767 299.834 306.053 305.099C306.053 305.099 316.609 291.396 335.084 300.076Z" fill="#E15F03"/>
<path d="M264.267 283.865C264.035 283.407 266.93 281.194 269.944 279.819C278.396 275.981 286.891 280.027 288.462 280.814C283.885 280.045 279.209 280.1 274.651 280.978C268.879 282.119 264.525 284.376 264.267 283.865Z" fill="#E15F03"/>
<path d="M329.209 293.28C326.937 291.69 324.233 290.844 321.466 290.858C318.7 290.872 316.004 291.745 313.749 293.358C313.749 293.358 324.356 290.427 329.209 293.28Z" fill="#E15F03"/>
<path d="M311.619 261.197C311.619 260.22 311.559 249.499 317.322 239.712C323.085 229.925 317.322 238.744 317.322 238.744C317.322 238.744 312.495 242.669 311.559 247.545C311.559 247.545 314.359 227.055 326.907 218.219C326.907 218.219 325.086 219.144 324.133 227.228C324.133 227.47 324.073 227.72 324.047 227.98C323.128 236.764 349.093 199.579 349.093 199.579C349.093 199.579 349.144 209.323 345.297 215.193C345.297 215.193 358.799 204.403 358.747 193.674C358.747 193.674 377.222 207.23 377.368 235.51C377.514 263.79 364.974 275.548 364.974 275.548L352.348 268.787L327.131 263.064L311.619 261.197Z" fill="#E15F03"/>
<path d="M353.387 284.376C353.387 284.376 339.774 274.692 319.435 274.796C319.435 274.796 340.796 284.436 343.716 287.35C346.636 290.263 353.387 284.376 353.387 284.376Z" fill="#E15F03"/>
<path d="M267.367 323.826C267.367 323.826 266.362 316.045 267.367 315.05C268.372 314.056 259.637 325.814 259.637 325.814L261.596 329.705H265.469L268.364 326.765L267.367 323.826Z" fill="#E15F03"/>
<path d="M293.152 249.585C293.152 249.585 342.204 180.109 363.522 180.973L355.698 171.264L342.187 182.063C342.187 182.063 297.859 222.265 293.152 249.585Z" fill="#FFDAAD"/>
<path d="M270.666 237.04C270.666 237.04 281.385 219.42 300.728 214.449L298.838 225.187C298.838 225.187 273.526 229.225 270.666 237.04Z" fill="#FFDAAD"/>
<path d="M255.326 240.032C255.326 240.032 257.172 222.472 274.591 218.478C292.01 214.484 276.558 225.3 276.558 225.3C276.558 225.3 256.27 235.147 255.326 240.032Z" fill="#FFDAAD"/>
<path d="M275.536 406.66C275.536 406.66 277.537 418.383 270.829 433.012C267.47 440.343 270.829 440.793 275.123 439.453C278.029 438.487 280.656 436.82 282.774 434.597C284.893 432.374 286.439 429.663 287.277 426.7C290.095 416.651 291.673 406.29 291.975 395.853C292.834 371.472 307.281 356.774 311.146 355.78C311.146 355.78 304.455 373.365 306.413 378.259C306.413 378.259 313.087 355.78 333.392 348.864L315.123 375.285L306.534 395.809L306.611 412.383C306.611 412.383 301.861 430.928 300.891 430.937C299.92 430.945 294.157 439.747 294.157 439.747L277.717 444.701L268.948 445.695C268.948 445.695 263.116 441.83 262.154 441.83C261.192 441.83 258.254 436.98 258.254 436.98C258.254 436.98 262.085 429.199 262.085 428.179C262.085 427.159 270.743 417.415 270.743 417.415L275.536 406.66Z" fill="#CDAE9D"/>
<path d="M299.946 445.539L287.492 472.903L276.953 495.382L265.383 507.148L260.634 524.725L255.935 537.304L251.177 524.725L246.333 507.174L234.712 495.477L224.061 473.05L211.461 445.747C211.461 445.747 202.743 449.646 207.587 479.871C212.432 510.097 235.682 529.601 235.682 529.601C234.712 526.679 237.615 522.78 237.615 522.78C240.406 545.258 254.793 554.198 255.935 554.898V554.985H255.978V554.933C257.155 554.233 271.439 545.172 274.136 522.719C274.136 522.719 277.065 526.601 276.111 529.532C276.111 529.532 299.302 509.915 303.948 479.664C308.595 449.413 299.946 445.539 299.946 445.539Z" fill="#CDAE9D"/>
<path d="M288.832 546.028C288.832 545.051 342.849 500.898 341.509 427.781C341.509 427.781 360.989 449.534 358.635 462.502C356.282 475.471 306.242 543.011 306.242 543.011L289.811 550.896L288.823 547.005L288.832 546.028Z" fill="#CDAE9D"/>
<path d="M287.38 450.476L285.826 442.219L265.083 447.666L254.089 446.741L254.183 447.718H246.333L225.573 442.375L224.062 450.64C240.475 461.076 253.024 457.557 255.549 456.692C258.16 457.548 271.035 460.989 287.38 450.476Z" fill="#CDAE9D"/>
<path d="M365.515 289.684C406.493 249.473 383.354 189.844 383.354 189.844L378.132 197.478C373.185 176.054 356.659 164.434 356.659 164.434C343.338 169.76 285.25 215.003 285.25 215.003C281.565 211.328 293.495 198.619 295.248 197.314C295.261 197.298 295.27 197.279 295.271 197.259C295.273 197.238 295.269 197.218 295.258 197.2C295.247 197.183 295.231 197.169 295.213 197.162C295.194 197.154 295.173 197.153 295.153 197.158C279.315 203.08 269.386 209.573 263.279 214.838C259.288 218.307 256.467 222.939 255.205 228.092C253.898 222.938 251.036 218.32 247.011 214.873C240.887 209.642 230.924 203.21 215.051 197.365C214.957 197.365 214.88 197.452 214.957 197.512C216.726 198.818 226.02 209.452 222.352 213.135C222.352 213.135 166.738 170.209 153.39 164.953C153.39 164.953 136.925 176.65 132.081 198.109L127.022 191.711C127.022 191.711 106.657 244.813 145.153 290.272C145.153 290.272 110.359 317.506 114.061 357.57C114.061 357.57 117.771 341.731 127.228 339.414C126.987 339.915 117.265 371.87 118.69 402.294C120.082 431.931 131.875 456.312 139.596 469.635C139.742 469.635 139.897 469.635 139.888 469.548C138.686 462.978 139.175 459.018 139.313 458.162C139.317 458.14 139.325 458.12 139.337 458.102C139.35 458.083 139.366 458.068 139.385 458.057C139.403 458.045 139.424 458.038 139.446 458.035C139.467 458.033 139.489 458.034 139.51 458.041L141.494 458.663C148.675 476.059 174.373 530.422 227.488 565.247L255.626 587.916L256.073 588.271L256.519 587.908L284.546 565.1C337.489 529.99 362.921 475.514 370.007 458.084L371.991 457.453C372.011 457.445 372.033 457.442 372.055 457.443C372.076 457.445 372.097 457.451 372.116 457.462C372.135 457.473 372.152 457.487 372.164 457.505C372.177 457.523 372.185 457.544 372.188 457.565C372.326 458.43 372.833 462.381 371.665 468.96C371.653 469.001 371.658 469.044 371.678 469.08C371.698 469.117 371.732 469.143 371.772 469.155C371.812 469.166 371.855 469.161 371.891 469.141C371.927 469.121 371.954 469.087 371.965 469.047C371.965 469.047 402.886 421.591 385.708 340.356C387.766 342.34 389.4 344.726 390.509 347.368C391.523 349.823 391.815 351.95 392.631 360.336C411.836 321.733 365.515 289.684 365.515 289.684ZM220.179 547.42C220.179 547.42 163.036 506.215 168.842 438.943C168.842 438.943 157.676 449.179 154.799 462.831L154.644 462.736C154.713 462.736 154.773 462.658 154.756 462.58C142.328 388.789 176.186 364.944 181.279 361.797C181.309 361.782 181.344 361.778 181.377 361.784C181.41 361.791 181.441 361.808 181.463 361.834C181.485 361.86 181.499 361.892 181.501 361.926C181.504 361.96 181.495 361.994 181.477 362.022C170.311 377.429 167.786 408.251 167.433 413.351C167.434 413.386 167.446 413.42 167.467 413.447C167.489 413.474 167.519 413.493 167.553 413.501C167.586 413.509 167.621 413.505 167.653 413.491C167.684 413.476 167.71 413.452 167.726 413.421C175.919 397.668 191.947 393.25 194.24 392.671C194.267 392.666 194.294 392.669 194.32 392.678C194.346 392.688 194.368 392.704 194.386 392.725C194.403 392.746 194.415 392.771 194.419 392.798C194.424 392.825 194.421 392.853 194.412 392.879C178.531 436.574 182.911 464.707 183.736 469.047C183.744 469.081 183.763 469.111 183.79 469.133C183.817 469.154 183.851 469.166 183.886 469.166C183.921 469.166 183.954 469.154 183.982 469.133C184.009 469.111 184.028 469.081 184.036 469.047C186.932 459.6 192.401 451.159 199.823 444.683C199.847 444.652 199.882 444.632 199.921 444.627C199.959 444.623 199.998 444.633 200.029 444.657C200.06 444.682 200.08 444.717 200.085 444.756C200.089 444.795 200.079 444.834 200.055 444.865C190.847 465.787 209.262 519.321 220.179 547.394V547.42ZM256.064 569.682C205.028 528.486 211.358 463.064 212.749 452.568C212.758 452.534 212.777 452.504 212.804 452.482C212.831 452.461 212.865 452.449 212.9 452.449C212.934 452.449 212.968 452.461 212.995 452.482C213.023 452.504 213.042 452.534 213.05 452.568C215.189 483.693 230.58 517.471 233.715 524.059C233.728 524.097 233.755 524.128 233.79 524.146C233.826 524.164 233.867 524.167 233.904 524.154C233.942 524.142 233.973 524.115 233.991 524.079C234.008 524.043 234.011 524.002 233.999 523.964C233.02 517.852 236.172 508.506 236.988 506.223C236.998 506.193 237.018 506.166 237.044 506.148C237.07 506.129 237.102 506.119 237.134 506.119C237.166 506.119 237.197 506.129 237.223 506.148C237.25 506.166 237.269 506.193 237.28 506.223C243.739 539.077 255.429 551.293 255.669 551.267C256.081 551.267 267.599 542.336 274.565 506.128C274.576 506.098 274.595 506.071 274.621 506.052C274.648 506.034 274.679 506.024 274.711 506.024C274.743 506.024 274.774 506.034 274.801 506.052C274.827 506.071 274.847 506.098 274.857 506.128C275.716 508.402 278.877 517.731 277.932 523.852C277.925 523.889 277.931 523.928 277.951 523.961C277.97 523.993 278 524.018 278.036 524.029C278.072 524.041 278.111 524.039 278.146 524.024C278.18 524.009 278.208 523.981 278.224 523.947C281.325 517.342 296.544 483.52 298.529 452.352C298.529 452.313 298.544 452.276 298.571 452.248C298.599 452.221 298.636 452.205 298.675 452.205C298.713 452.205 298.75 452.221 298.778 452.248C298.805 452.276 298.821 452.313 298.821 452.352C300.178 462.839 306.843 528.226 256.064 569.682ZM228.476 447.623C228.473 447.593 228.479 447.562 228.493 447.535C228.507 447.508 228.529 447.486 228.555 447.471C228.582 447.456 228.612 447.45 228.642 447.452C228.672 447.454 228.701 447.466 228.725 447.485C236.215 453.684 252.697 453.156 254.424 453.087C254.475 453.087 255.137 452.905 255.592 452.767C256.159 452.905 256.975 453.078 257.026 453.078C258.744 453.139 275.235 453.58 282.699 447.346C282.723 447.327 282.752 447.316 282.782 447.314C282.812 447.311 282.842 447.318 282.869 447.333C282.895 447.347 282.917 447.37 282.931 447.397C282.945 447.424 282.951 447.454 282.948 447.485C282.45 450.536 275.707 474.52 256.021 465.269C256.021 465.174 253.874 466.522 253.779 466.54C232.487 470.888 228.983 450.666 228.476 447.623ZM356.848 462.217L356.702 462.312C353.722 448.678 342.53 438.502 342.53 438.502C348.68 505.748 291.743 547.204 291.743 547.204C302.522 519.079 320.663 465.45 311.352 444.571C311.34 444.556 311.331 444.538 311.326 444.519C311.321 444.501 311.32 444.481 311.322 444.462C311.325 444.443 311.331 444.424 311.34 444.407C311.35 444.39 311.363 444.375 311.378 444.363C311.393 444.352 311.41 444.343 311.429 444.338C311.448 444.332 311.467 444.331 311.486 444.333C311.505 444.336 311.524 444.342 311.541 444.352C311.557 444.361 311.572 444.374 311.584 444.389C319.039 450.829 324.553 459.242 327.5 468.675C327.51 468.706 327.53 468.732 327.556 468.751C327.582 468.77 327.613 468.78 327.646 468.78C327.678 468.78 327.709 468.77 327.735 468.751C327.761 468.732 327.781 468.706 327.792 468.675C328.599 464.352 332.833 436.167 316.729 392.593C316.719 392.567 316.716 392.538 316.721 392.51C316.726 392.482 316.738 392.456 316.757 392.435C316.775 392.413 316.799 392.397 316.826 392.389C316.853 392.38 316.882 392.379 316.909 392.386C319.202 392.93 335.247 397.271 343.535 412.98C343.546 413.016 343.57 413.046 343.603 413.065C343.635 413.084 343.673 413.09 343.71 413.081C343.746 413.072 343.778 413.049 343.798 413.018C343.818 412.986 343.826 412.948 343.819 412.911C343.449 407.81 340.761 376.996 329.518 361.65C329.499 361.622 329.491 361.588 329.493 361.554C329.496 361.52 329.509 361.488 329.532 361.462C329.554 361.437 329.584 361.419 329.617 361.413C329.651 361.406 329.685 361.411 329.716 361.426C334.869 364.555 368.804 388.227 356.745 462.07C356.744 462.102 356.753 462.134 356.772 462.161C356.791 462.188 356.817 462.207 356.848 462.217ZM380.357 343.771C380.354 343.803 380.342 343.833 380.322 343.858C380.302 343.883 380.276 343.902 380.246 343.912C380.216 343.922 380.184 343.923 380.153 343.915C380.122 343.907 380.095 343.89 380.073 343.866C379.292 342.881 376.363 339.466 367.319 331.174C367.293 331.146 367.258 331.128 367.22 331.124C367.182 331.119 367.144 331.13 367.113 331.152C367.082 331.175 367.06 331.208 367.052 331.246C367.044 331.283 367.05 331.323 367.069 331.356C370.265 337.927 391.78 396.907 370.402 445.09C370.402 445.09 382.556 406.617 339.765 354.241C339.744 354.214 339.733 354.18 339.733 354.146C339.733 354.112 339.744 354.078 339.765 354.051C341.079 352.322 359.167 327.889 339.447 306.37C339.447 306.37 356.994 327.733 327.096 353.23C327.096 353.23 312.692 361.063 306.027 388.201C306.021 388.226 306.009 388.25 305.992 388.269C305.975 388.288 305.953 388.302 305.929 388.31C305.904 388.318 305.879 388.319 305.854 388.314C305.829 388.308 305.805 388.296 305.786 388.279C304.592 387.164 298.211 379.953 307.599 361.477C307.611 361.451 307.616 361.421 307.612 361.391C307.608 361.362 307.596 361.334 307.577 361.311C307.558 361.289 307.533 361.272 307.505 361.263C307.477 361.254 307.447 361.254 307.418 361.261C305.116 362.126 292.224 369.734 291.632 426.562C291.632 426.562 287.887 451.833 263.734 438.476C263.716 438.468 263.701 438.456 263.688 438.441C263.675 438.426 263.665 438.409 263.659 438.39C263.654 438.371 263.652 438.351 263.655 438.332C263.657 438.312 263.664 438.294 263.674 438.277C264.98 436.167 281.857 408.259 272.538 389.533C272.522 389.498 272.494 389.471 272.46 389.456C272.425 389.44 272.386 389.438 272.35 389.45C272.314 389.462 272.284 389.486 272.265 389.519C272.245 389.552 272.239 389.59 272.246 389.628C272.684 392.221 273.655 398.982 272.186 402.173L272.04 402.294L266.998 403.426C259.514 405.106 251.756 405.127 244.263 403.487L239.178 402.371L239.023 402.259C237.546 399.069 238.474 392.265 238.903 389.714C238.91 389.677 238.904 389.638 238.885 389.605C238.865 389.573 238.835 389.548 238.799 389.537C238.763 389.525 238.724 389.527 238.69 389.542C238.655 389.557 238.627 389.585 238.611 389.619C229.378 408.389 246.401 436.211 247.716 438.32C247.735 438.354 247.74 438.393 247.73 438.43C247.72 438.467 247.697 438.499 247.664 438.519C223.572 451.998 219.707 426.744 219.707 426.744C218.77 369.812 205.844 362.385 203.576 361.521C203.548 361.511 203.517 361.51 203.488 361.519C203.459 361.527 203.434 361.544 203.415 361.568C203.396 361.592 203.385 361.62 203.383 361.651C203.381 361.681 203.389 361.711 203.405 361.737C212.853 380.143 206.574 387.389 205.363 388.538C205.344 388.558 205.32 388.572 205.294 388.579C205.268 388.585 205.24 388.585 205.215 388.577C205.189 388.569 205.166 388.554 205.148 388.533C205.13 388.513 205.118 388.487 205.114 388.461C198.311 361.365 183.873 353.61 183.864 353.61C153.854 328.27 171.264 306.854 171.264 306.854C151.655 328.468 169.864 352.823 171.187 354.535C171.207 354.564 171.218 354.599 171.218 354.634C171.218 354.67 171.207 354.705 171.187 354.734C128.662 407.317 139.012 445.15 139.012 445.15C117.385 397.072 140.61 338.566 143.771 331.978C143.848 331.831 143.65 331.693 143.521 331.806C134.477 340.183 131.574 343.598 130.818 344.567C130.801 344.592 130.776 344.611 130.747 344.622C130.718 344.632 130.687 344.633 130.657 344.624C130.628 344.616 130.602 344.598 130.583 344.574C130.564 344.549 130.553 344.52 130.552 344.489C130.458 343.113 130.458 341.732 130.552 340.356C131.13 332.314 133.922 324.592 138.617 318.059C146.631 306.681 158.475 294.863 175.962 285.041C176.065 285.012 176.154 284.945 176.212 284.854C176.269 284.763 176.292 284.654 176.275 284.548C176.258 284.441 176.203 284.344 176.12 284.276C176.037 284.208 175.932 284.172 175.825 284.177C170.988 283.443 166.056 283.678 161.309 284.868C161.187 284.9 161.058 284.893 160.939 284.849C160.821 284.805 160.719 284.725 160.647 284.62C160.575 284.516 160.536 284.391 160.536 284.264C160.537 284.137 160.576 284.013 160.648 283.909C165.855 277.08 172.616 271.611 180.362 267.962C188.108 264.313 196.612 262.592 205.157 262.943C205.157 262.943 197.427 260.021 190.633 260.998C190.633 260.998 192.505 244.986 183.366 235.182C183.344 235.154 183.313 235.136 183.279 235.129C183.244 235.123 183.209 235.13 183.179 235.147C183.149 235.165 183.126 235.193 183.115 235.226C183.103 235.26 183.104 235.296 183.117 235.329C183.607 236.755 184.603 240.196 183.847 242.47C183.847 242.47 164.891 226.112 161.833 216.213C161.818 216.149 161.781 216.093 161.73 216.052C161.679 216.012 161.615 215.99 161.55 215.99C161.485 215.99 161.421 216.012 161.37 216.052C161.319 216.093 161.282 216.149 161.267 216.213C160.743 218.452 159.927 224.046 162.417 231.706C162.46 231.831 162.458 231.967 162.41 232.09C162.363 232.214 162.275 232.316 162.16 232.38C162.045 232.444 161.911 232.465 161.783 232.44C161.654 232.415 161.538 232.345 161.455 232.242C158.02 228.032 151.621 219.04 151.698 211.354C151.697 211.318 151.682 211.284 151.658 211.257C151.634 211.23 151.601 211.213 151.566 211.207C151.53 211.202 151.494 211.21 151.463 211.229C151.433 211.248 151.409 211.277 151.398 211.311C149.422 219.689 142.353 252.127 146.691 269.444C146.705 269.491 146.701 269.541 146.68 269.586C146.66 269.63 146.624 269.665 146.579 269.684C146.535 269.703 146.485 269.705 146.439 269.69C146.393 269.674 146.354 269.642 146.33 269.6C142.843 263.816 128.018 236.522 138.325 205.397C138.325 205.397 146.055 182.002 152.849 178.103C152.849 178.103 202.666 207.446 218.985 254.021C219.114 254.392 218.453 229.596 212.913 220.026C212.913 220.026 234.222 223.761 240.595 241.251C240.75 241.683 242.313 233.634 235.888 224.867C235.832 224.793 235.8 224.703 235.797 224.61C235.794 224.517 235.819 224.425 235.87 224.347C235.921 224.269 235.995 224.209 236.081 224.175C236.168 224.142 236.262 224.136 236.352 224.158C239.169 224.885 246.719 227.833 254.389 239.314C254.389 239.314 255.162 240.715 255.248 240.611C255.317 240.715 256.107 239.314 256.107 239.314C263.674 227.79 271.215 224.798 274.033 224.063C274.121 224.043 274.214 224.049 274.298 224.083C274.383 224.117 274.455 224.176 274.505 224.252C274.556 224.328 274.582 224.418 274.58 224.509C274.579 224.601 274.549 224.689 274.496 224.764C268.123 233.556 269.712 241.614 269.867 241.19C276.154 223.657 297.446 219.818 297.446 219.818C289.656 237.87 291.434 254.211 291.537 253.839C307.59 207.152 357.295 177.584 357.295 177.584C364.089 181.449 371.957 204.818 371.957 204.818C382.418 235.882 367.731 263.254 364.269 269.055C364.243 269.091 364.205 269.117 364.162 269.128C364.119 269.14 364.073 269.136 364.032 269.118C363.991 269.1 363.958 269.068 363.937 269.029C363.916 268.989 363.909 268.944 363.917 268.9C368.212 251.565 360.928 219.161 358.918 210.792C358.907 210.758 358.884 210.729 358.853 210.71C358.822 210.691 358.786 210.684 358.75 210.689C358.715 210.694 358.682 210.711 358.658 210.738C358.634 210.765 358.62 210.799 358.618 210.835C358.729 218.521 352.339 227.547 348.964 231.775C348.879 231.873 348.763 231.939 348.636 231.961C348.509 231.984 348.378 231.962 348.265 231.9C348.151 231.837 348.063 231.737 348.013 231.617C347.964 231.497 347.957 231.364 347.993 231.239C350.45 223.57 349.608 217.968 349.067 215.746C349.051 215.682 349.015 215.626 348.963 215.585C348.912 215.545 348.848 215.523 348.783 215.523C348.718 215.523 348.655 215.545 348.603 215.585C348.552 215.626 348.516 215.682 348.5 215.746C345.494 225.663 326.615 242.115 326.615 242.115C325.85 239.842 326.838 236.383 327.319 234.957C327.332 234.924 327.333 234.888 327.322 234.855C327.31 234.821 327.288 234.793 327.257 234.776C327.227 234.758 327.192 234.751 327.157 234.758C327.123 234.764 327.092 234.783 327.07 234.81C317.974 244.666 319.933 260.678 319.933 260.678C313.147 259.735 305.408 262.701 305.408 262.701C313.953 262.304 322.466 263.982 330.231 267.594C337.995 271.205 344.783 276.644 350.02 283.45C350.099 283.552 350.144 283.676 350.148 283.805C350.153 283.934 350.117 284.061 350.045 284.169C349.974 284.276 349.871 284.358 349.751 284.403C349.631 284.447 349.499 284.453 349.376 284.419C344.617 283.251 339.675 283.039 334.835 283.796C334.734 283.803 334.639 283.845 334.565 283.913C334.49 283.982 334.441 284.073 334.425 284.174C334.409 284.274 334.427 284.376 334.477 284.465C334.526 284.553 334.604 284.622 334.697 284.661C352.219 294.37 364.106 306.102 372.18 317.419C377.1 324.171 379.973 332.213 380.451 340.572C380.482 341.648 380.451 342.725 380.357 343.797V343.771Z" fill="#461E0E"/>
<path d="M277.537 322.347C281.136 318.388 290.043 310.546 293.908 308.575C293.908 308.575 272.633 316.486 262.987 329.212C262.987 329.212 261.02 323.368 268.716 313.581C268.716 313.581 258.71 320.376 255.352 325.468C251.967 320.393 241.927 313.65 241.927 313.65C249.657 323.402 247.742 329.212 247.742 329.212C238.053 316.537 216.744 308.739 216.744 308.739C220.617 310.684 231.096 319.114 235.141 323.368C251.34 340.434 231.268 331.149 231.268 331.149C195.434 309.699 178.015 308.722 178.015 308.722C178.977 308.843 175.997 309.042 175.997 309.042C183.049 311.186 195.451 317.497 195.451 317.497C194.481 347.757 226.441 343.823 226.441 343.823C217.723 352.599 200.287 351.604 200.287 351.604C237.168 360.457 235.683 342.414 235.683 342.414C247.587 344.013 253.634 339.059 255.437 337.227C257.241 339.051 263.314 343.97 275.192 342.31C275.192 342.31 273.835 360.354 310.597 351.397C310.597 351.397 293.169 352.46 284.408 343.728C284.408 343.728 316.394 347.463 315.269 317.246C315.269 317.246 327.148 311.194 334.285 309.094C335.144 308.834 331.803 308.488 332.662 308.376C332.662 308.376 315.226 309.439 279.495 331.08C279.513 331.062 261.742 339.768 277.537 322.347Z" fill="#461E0E"/>
<path d="M255.317 288.992L256.022 288.266C259.749 284.523 270.58 275.056 284.563 274.986C284.563 274.986 267.763 273.188 255.291 282.396C242.777 273.257 225.994 275.133 225.994 275.133C239.969 275.133 250.834 284.531 254.596 288.257L255.317 288.992Z" fill="#461E0E"/>
<path d="M229.885 338.636C232.462 337.875 205.183 319.987 205.183 319.987C205.183 319.987 206.067 345.76 229.885 338.636Z" fill="#F1E7DE"/>
<path d="M282.974 336.76L311.241 317.056C311.241 317.056 310.176 342.232 282.974 336.76Z" fill="#F1E7DE"/>
<path d="M122.496 239.098C125.344 257.812 133.573 275.277 146.167 289.338L147.129 290.479C142.225 294.117 137.708 298.258 133.653 302.834C129.847 307.062 126.421 311.622 123.415 316.46C126.04 311.357 129.11 306.5 132.588 301.944C136.066 297.312 139.974 293.025 144.26 289.139L144.054 291.154C132.107 276.404 124.162 257.92 122.496 239.098Z" fill="#1BEFEF"/>
<path d="M377.351 299.938C372.929 296.215 368.235 292.833 363.308 289.822C378.862 275.989 388.018 255.888 389.607 235.086C389.221 255.404 380.941 276.041 366.486 290.652L366.305 288.499C370.305 291.987 374 295.814 377.351 299.938Z" fill="#1BEFEF"/>
</g>
<defs>
<filter id="filter0_f_473_9908" x="0" y="0" width="519" height="646" filterUnits="userSpaceOnUse" color-interpolation-filters="sRGB">
<feFlood flood-opacity="0" result="BackgroundImageFix"/>
<feBlend mode="normal" in="SourceGraphic" in2="BackgroundImageFix" result="shape"/>
<feGaussianBlur stdDeviation="22" result="effect1_foregroundBlur_473_9908"/>
</filter>
<clipPath id="clip0_473_9908">
<rect width="431" height="558" fill="white" transform="translate(44 44)"/>
</clipPath>
</defs>
</svg>
