<svg width="24" height="24" viewBox="0 0 24 24" fill="none" xmlns="http://www.w3.org/2000/svg">
<path fill-rule="evenodd" clip-rule="evenodd" d="M4 17.7143V6.28571C4 5.67951 4.24082 5.09812 4.66947 4.66947C5.09812 4.24082 5.67951 4 6.28571 4H17.7143C18.3205 4 18.9019 4.24082 19.3305 4.66947C19.7592 5.09812 20 5.67951 20 6.28571V17.7143C20 18.3205 19.7592 18.9019 19.3305 19.3305C18.9019 19.7592 18.3205 20 17.7143 20H6.28571C5.67951 20 5.09812 19.7592 4.66947 19.3305C4.24082 18.9019 4 18.3205 4 17.7143V17.7143Z" stroke="#292929" stroke-width="1.14286" stroke-linecap="round" stroke-linejoin="round"/>
<path fill-rule="evenodd" clip-rule="evenodd" d="M16.5 17.7143V12V6.28571C16.5 5.67951 16.1313 5.09812 15.4749 4.66947C14.8185 4.24082 13.9283 4 13 4H16.5C18.25 4 20 5.02286 20 6.28571V17.7143C20 18.9771 18.25 20 16.5 20H13C13.9283 20 14.8185 19.7592 15.4749 19.3305C16.1313 18.9019 16.5 18.3205 16.5 17.7143Z" fill="#292929" stroke="#292929" stroke-width="1.14286" stroke-linecap="round" stroke-linejoin="round"/>
<path d="M11.0001 15.4286L14.4286 12M14.4286 12L11.0001 8.57141M14.4286 12L6 12" stroke="#292929" stroke-width="1.14286" stroke-linecap="round" stroke-linejoin="round"/>
</svg>
