
<svg className="svg_content" viewBox="0 0 92 59" fill="none" xmlns="http://www.w3.org/2000/svg">
<g clip-path="url(#clip0_409_916)">
<path d="M87.3102 43.9619C84.5857 46.3302 76.9304 54.0098 76.9304 54.0098C70.2364 50.7402 59.6598 47.1277 45.7363 47.1277C30.6078 47.1277 18.0899 52.1382 10.4347 56.1919L2.26794 47.9603V2.74345L5.0192 2.72725L11.0438 2.68947L13.8098 2.67598V2.78123C14.3705 2.52474 14.9694 2.36334 15.5824 2.30353L15.7162 2.29139H16.3401L16.4566 2.30083C16.9863 2.34626 17.5072 2.46571 18.0043 2.65573L25.7559 2.6247L29.3921 2.6139L31.3334 2.60716H32.1501L37.8333 2.59636H39.5738H41.8015C42.7695 2.59636 43.5487 2.59636 44.7563 2.59636C45.4042 2.59212 46.046 2.72163 46.6424 2.97692C47.2387 3.2322 47.7769 3.60786 48.2238 4.08074L48.3777 2.59636L54.6902 2.60446H56.3584H57.5097L61.1901 2.6139H61.3012C61.9237 2.63544 62.5376 2.76651 63.1153 3.00119L63.1006 2.61525L65.9803 2.6247L70.2552 2.64224H71.444H71.5391L74.1979 2.65573L77.2116 2.67058L77.4084 2.70026C78.4377 2.85231 79.3908 3.33503 80.1262 4.07669C80.5502 3.56824 81.07 3.14952 81.6555 2.84471C82.241 2.5399 82.8806 2.35505 83.5374 2.30083L83.6619 2.29004H84.3635L84.6045 2.33187C85.8951 2.56262 88.1951 3.48699 89.1136 7.07513C89.5406 8.74439 89.5674 10.5297 89.5848 11.8305C89.5848 12.1004 89.5929 12.3393 89.5995 12.5511V12.647V20.9203L87.6101 20.5438C87.7774 21.0553 87.9528 21.6112 88.1697 22.2981C89.2407 25.5637 89.7441 29.102 89.7187 33.1125V34.2325C89.7187 34.3675 89.7187 34.5699 89.7187 34.8155C89.7549 38.3051 89.4951 42.0592 87.3102 43.9619Z" fill="#461E0E"/>
<path d="M84.3661 2.29124L84.6071 2.33307C85.8977 2.56382 88.1978 3.48819 89.1162 7.07634C89.5433 8.74559 89.57 10.5309 89.5875 11.8317C89.5875 12.1016 89.5955 12.3405 89.6022 12.5523V12.6482V20.9215L87.6127 20.545C87.7801 21.0565 87.9555 21.6124 88.1723 22.2993C89.2434 25.5649 89.7468 29.1032 89.7213 33.1137V34.2324C89.7213 34.3673 89.7213 34.5697 89.7213 34.8153C89.7508 38.3117 89.4911 42.0699 87.3115 43.9685C84.587 46.3368 76.9317 54.0164 76.9317 54.0164C70.2377 50.7467 59.6612 47.1343 45.7376 47.1343C30.6091 47.1343 18.0913 52.1448 10.436 56.1985L2.26926 47.9669V2.7433L5.0205 2.7271L11.0451 2.68932L13.8111 2.67583V2.78108C14.3718 2.52459 14.9708 2.36319 15.5837 2.30338L15.7176 2.29124H16.3414L16.4579 2.30068C16.9872 2.34624 17.5076 2.46568 18.0042 2.65559L25.7559 2.62455L29.3921 2.61375L31.3334 2.60701H32.1501L37.8333 2.59621H39.5737H41.8015C42.7695 2.59621 43.5486 2.59621 44.7562 2.59621C45.4041 2.59197 46.046 2.72148 46.6424 2.97677C47.2387 3.23205 47.7769 3.60771 48.2237 4.08059L48.3777 2.59621L54.6902 2.60431H56.3583H57.5097L61.1901 2.61375H61.3012C61.9237 2.63529 62.5376 2.76636 63.1153 3.00104L63.1005 2.6151L65.9803 2.62455L70.2551 2.64209H71.444H71.539L74.1979 2.65559L77.2115 2.67043L77.4083 2.70011C78.4375 2.85271 79.3904 3.33535 80.1261 4.07654C80.5502 3.56809 81.07 3.14937 81.6555 2.84456C82.241 2.53975 82.8806 2.3549 83.5374 2.30068L83.6619 2.28989H84.3634M84.5616 -0.00415039H83.5615L83.4624 0.00529252L83.3366 0.0160903C82.1496 0.122281 81.0062 0.518785 80.0056 1.17121C79.2996 0.801813 78.5378 0.552847 77.7511 0.434416L77.5543 0.404728L77.3923 0.380439H77.229L74.2153 0.365593L71.5564 0.353449H71.4533H70.2725L67.9966 0.342651L66.062 0.335906H66.0031L63.1206 0.327809L60.7523 0.319713H58.645H54.7022L48.3871 0.311617H46.3387L46.32 0.484344C45.8107 0.372221 45.2909 0.31522 44.7696 0.314314H41.8042H39.5724H37.8319L32.146 0.325112H31.3347H29.3868L27.1215 0.331858H25.7506L18.3871 0.361545C17.827 0.183703 17.2492 0.0683131 16.6641 0.0174411H16.644L16.5262 0.00799403L16.4378 0.00124438H15.6091L15.5007 0.0120422L15.3668 0.0255373C14.7853 0.0810556 14.2118 0.202368 13.6571 0.387185L11.0331 0.40068C9.04005 0.411476 7.0488 0.423619 5.05934 0.437113H5.00578L2.25588 0.453306L-0.00268555 0.466801V48.9115L0.666717 49.5862L8.83343 57.8178L10.0156 59.0093L11.4963 58.2253C19.0793 54.2107 31.1767 49.4243 45.7416 49.4243C59.4282 49.4243 69.7223 53.0435 75.9464 56.0811L77.3976 56.7882L78.5396 55.6425C78.616 55.5656 86.1708 47.9939 88.8016 45.7066C90.1899 44.5002 91.099 42.7837 91.5796 40.4627C91.9812 38.5195 92.0174 36.4144 92.004 34.7951V34.7519C92.004 34.5616 92.004 34.3808 92.004 34.2917V33.1272C92.0268 29.6321 91.6639 26.4637 90.8995 23.5017L91.8862 23.6892V12.6104V12.5132V12.4781C91.8795 12.2879 91.8755 12.0611 91.8728 11.8034C91.8527 10.4648 91.8246 8.44331 91.3292 6.50687C90.0467 1.49777 86.4868 0.344005 85.0154 0.0808647L84.7718 0.0376818L84.5763 0.00259514L84.5616 -0.00415039Z" fill="#1BEFEF"/>
<path d="M5.03925 5.51384L11.0639 5.47876C11.0737 7.34728 11.0835 9.21579 11.0933 11.0843C9.63403 11.2098 8.90438 11.2759 7.44642 11.4109C7.45356 14.3625 7.4607 17.3133 7.46784 20.2632C8.69954 19.9811 9.31405 19.8448 10.5471 19.5804C10.5591 21.7165 10.5645 22.7718 10.5752 24.9025C9.34083 25.2682 8.7223 25.4585 7.4839 25.8471C7.49729 31.1549 7.50979 36.4663 7.5214 41.7813C6.53202 42.321 6.03532 42.6017 5.04327 43.1698L5.03925 5.51384Z" fill="#F1E7DE"/>
<path d="M19.9027 27.635C19.9562 30.6929 19.8344 36.0609 16.5356 37.6762L16.162 37.8476C12.4817 39.5762 12.6477 31.6604 12.5928 30.1207L12.4843 14.4106C12.5366 11.9816 12.1711 5.44088 15.8555 5.07788H16.225C19.6911 5.37746 19.7541 11.0559 19.7567 13.4808C19.8049 18.1984 19.8536 22.9165 19.9027 27.635ZM17.2826 13.8465C17.2585 11.2259 16.806 10.2786 16.0777 10.3299C15.3494 10.3812 14.9397 11.4202 14.9625 14.1312C15.0053 19.1745 15.0499 24.2178 15.0964 29.2611C15.1164 31.6698 15.5194 32.7696 16.3013 32.4674C17.0831 32.1651 17.4433 30.7981 17.4219 28.4676C17.3737 23.5935 17.3273 18.7198 17.2826 13.8465Z" fill="#F1E7DE"/>
<path d="M20.8813 35.3877C21.5793 29.9521 22.3469 24.5274 23.1841 19.1135C22.35 14.5605 21.5601 10.0034 20.8412 5.43019L23.3488 5.42075C23.7919 8.6405 24.2551 11.8562 24.7585 15.0665C25.1856 11.8495 25.6087 8.6324 26.0023 5.40995L28.4121 5.40186C27.7427 9.83745 27.0439 14.2649 26.341 18.6938C27.1871 23.3197 28.0172 27.9469 28.7656 32.593C27.8284 32.8777 27.3518 33.0288 26.3986 33.3473C25.8818 29.9818 25.3355 26.6217 24.7599 23.267C24.2324 26.9924 23.7379 30.7222 23.2765 34.4565C22.3232 34.8114 21.8439 34.9977 20.8813 35.3877Z" fill="#F1E7DE"/>
<path d="M34.3444 9.73083C33.4688 9.76187 33.0296 9.77807 32.1501 9.81315C32.1501 8.11151 32.1501 7.23573 32.1501 5.3924C34.426 5.387 36.702 5.3825 38.978 5.37891C38.9445 7.14262 38.9271 7.97927 38.8936 9.60129C38.0328 9.62018 37.6017 9.63098 36.7381 9.65527C36.6426 16.6723 36.5462 23.693 36.449 30.7173C35.556 30.8778 35.1102 30.9682 34.1984 31.168C34.2457 24.0231 34.2944 16.8774 34.3444 9.73083Z" fill="#F1E7DE"/>
<path d="M41.9514 30.0115C41.116 30.0722 40.6943 30.1127 39.8415 30.2112C40.0544 21.9324 40.3168 13.655 40.5283 5.38159H44.7603C47.1219 5.38159 47.2946 8.63508 47.1219 10.2989C47.0684 11.3785 47.0416 11.9007 46.988 12.9384C46.8542 15.4362 45.9719 16.3997 45.3815 16.7168C46.0107 17.1811 46.7203 18.1661 46.5864 20.556C46.4784 22.6116 46.3749 24.6673 46.2758 26.7229C46.2115 28.0629 46.2758 29.1114 46.399 29.7362V29.9197C45.2556 29.8981 44.7924 29.9008 43.9891 29.9197C43.9007 29.4811 43.8418 28.6607 43.9248 26.9037C44.0141 25.0217 44.1078 23.1388 44.206 21.255C44.289 19.6357 44.0427 18.961 43.3036 18.9866C42.9341 18.9974 42.7494 19.0028 42.3785 19.0176C42.2259 22.6836 42.0835 26.3482 41.9514 30.0115ZM42.5084 15.6926C42.8859 15.6818 43.0747 15.6778 43.4456 15.6697C44.2154 15.6535 44.53 14.8492 44.6076 13.319C44.6491 12.5093 44.6706 12.0896 44.7121 11.2503C44.7951 9.57833 44.5434 8.91171 43.7454 8.91711L42.7681 8.92521C42.686 11.1815 42.5994 13.4373 42.5084 15.6926Z" fill="#F1E7DE"/>
<path d="M53.4826 25.5137C52.3928 25.4071 51.8412 25.3613 50.7246 25.2897C50.5171 27.1196 50.4114 28.0628 50.1891 30.0735C49.1957 30.0047 48.6937 29.9777 47.6762 29.9385C48.7941 21.7542 50.007 13.5901 50.8652 5.37207H53.8253C54.5724 13.8641 55.6046 22.3237 56.5029 30.7995C55.4814 30.6335 54.9646 30.5593 53.9177 30.4297C53.7423 28.3637 53.6553 27.3922 53.4826 25.5137ZM51.1531 21.6827C51.9563 21.7286 52.3499 21.7569 53.1372 21.8176C52.9337 19.6437 52.8359 18.5992 52.6458 16.4739C52.4905 14.5496 52.3205 12.6239 52.2656 10.6942C52.1464 12.6104 51.9403 14.5212 51.7448 16.432C51.5159 18.5264 51.3981 19.5519 51.1531 21.6827Z" fill="#F1E7DE"/>
<path d="M57.5137 5.3855L61.1914 5.39494C64.1596 5.52988 64.2988 9.83324 64.3416 11.964C64.5201 16.6681 64.7031 21.3718 64.8905 26.075C64.9976 27.8684 65.1369 32.7197 62.0309 31.9343C60.4524 31.5443 59.6451 31.3675 57.997 31.0639C57.8417 22.5044 57.657 13.945 57.5137 5.3855ZM60.4591 27.361C60.8139 27.4299 60.9946 27.465 61.3414 27.5378C62.2384 27.7213 62.4994 26.8213 62.4379 24.9833C62.2933 20.7434 62.1469 16.5035 61.9987 12.2636C61.9345 10.3136 61.6439 9.42975 60.8139 9.40141L59.9477 9.36903C60.1083 15.3673 60.2904 21.3642 60.4591 27.361Z" fill="#F1E7DE"/>
<path d="M71.5297 5.43285C71.602 7.48129 71.6381 8.46098 71.7104 10.3731C70.389 10.2827 69.7223 10.2382 68.3768 10.1572C68.4661 12.4881 68.562 14.8186 68.6646 17.1486C69.7879 17.3173 70.3435 17.4064 71.4453 17.5913C71.519 19.4211 71.5565 20.3225 71.6314 22.1456C70.5323 21.8892 69.9753 21.7664 68.8494 21.5316C68.9601 24.1297 69.0672 26.7274 69.1707 29.3246C70.5698 29.7564 71.2566 29.9858 72.6034 30.4635C72.677 32.4229 72.7145 33.4323 72.7882 35.5306C70.9272 34.7345 69.006 34.0112 67.0822 33.3891C66.7381 24.0618 66.3177 14.7372 65.9736 5.40991L71.5297 5.43285Z" fill="#F1E7DE"/>
<path d="M76.3454 37.1404C75.518 36.7355 75.0976 36.5453 74.2475 36.1647C73.8967 25.9225 73.4723 15.683 73.1229 5.43945L77.0054 5.45834C79.5973 5.84968 79.3979 10.2974 79.5103 12.1111C79.5438 13.5846 79.5612 14.3079 79.596 15.741C79.679 19.1915 79.0685 20.4047 78.5423 20.7016C79.6348 22.329 79.8504 24.4017 79.8557 26.3247C79.9236 29.1504 79.9905 31.9765 80.0565 34.8032C80.0735 36.1883 80.1629 37.5716 80.3243 38.9473C80.3243 39.0458 80.3243 39.0944 80.3243 39.1929C79.5465 38.7664 79.1529 38.5559 78.3522 38.143C78.2304 37.5169 78.1086 36.409 78.0443 34.0947C77.9747 31.5919 77.9024 29.0892 77.8274 26.5865C77.7618 24.4274 77.4673 23.4315 76.7564 23.2399C76.4043 23.144 76.2209 23.0955 75.8714 23.0023C76.0392 27.7164 76.1972 32.4291 76.3454 37.1404ZM75.7335 18.6882L76.6238 18.8663C77.3495 19.0121 77.5717 17.9825 77.5101 15.9327C77.478 14.8396 77.4619 14.289 77.4298 13.1744C77.3655 10.9505 77.0817 10.0586 76.3454 10.0086L75.4417 9.94792C75.539 12.8609 75.6362 15.7743 75.7335 18.6882Z" fill="#F1E7DE"/>
<path d="M84.077 41.773C81.627 40.0565 81.3552 35.7006 81.3578 33.0152C81.3204 31.1044 81.2824 29.194 81.244 27.2841C82.0353 27.5635 82.4276 27.7052 83.2041 27.9912C83.2295 29.8805 83.2429 30.8251 83.2683 32.7615C83.2938 34.6979 83.6151 35.8463 84.176 36.1351C84.737 36.4239 85.0128 35.3605 84.9954 33.0246C84.9954 32.8695 84.9954 32.7912 84.9954 32.636C85.017 30.7465 84.7237 28.8667 84.1278 27.075C83.5361 25.2465 83.2322 24.3572 82.6163 22.6218C81.5814 19.8488 81.1195 16.938 81.0553 13.9855C81.0553 13.5995 81.0446 13.4052 81.0365 13.0166C81.0673 10.9519 80.6697 5.37202 83.7918 5.08594H84.1252C87.0545 5.61087 86.7666 10.5687 86.8403 12.659C86.8403 14.6548 86.8403 15.6277 86.8403 17.5696C86.0718 17.4252 85.6849 17.3523 84.9057 17.2093C84.895 15.8288 84.891 15.1338 84.8802 13.7237C84.8642 11.52 84.579 10.5781 84.0154 10.535C83.4049 10.4864 83.1318 11.3109 83.1572 13.3688C83.1572 13.5037 83.1572 13.5685 83.1572 13.7021C83.184 15.7978 83.433 16.795 84.0609 18.6599C84.6647 20.4344 84.9606 21.3318 85.5336 23.1711C86.5886 26.3922 86.9701 29.7266 86.9487 33.111V34.1649C86.9125 35.5656 87.3503 42.7892 84.3769 41.9781L84.077 41.773Z" fill="#F1E7DE"/>
</g>
<defs>
<clipPath id="clip0_409_916">
<rect width="92" height="59" fill="white"/>
</clipPath>
</defs>
</svg>
